<svg version="1" xmlns="http://www.w3.org/2000/svg" width="682.667" height="682.667" viewBox="0 0 512.000000 512.000000"><path d="M214 11.5c-.9 1.1-1 5.2-.5 16.4l.7 14.9-5.8 4.3c-10.5 7.6-19.8 18.8-20.8 25-.3 1.9-.8 6-1.1 9.2-.6 7.2-2.1 10-8 15.6-5.1 4.9-7.6 9-7.1 11.7.7 3.3 5.3 12.8 7.9 16.2 3.3 4.4 10.4 9.7 14.7 11 1.9.6 6.4 1.4 10 1.7 11.3 1.2 14.2 3.7 14.1 12.4 0 11.1-7 31.1-20.8 60.1-2.5 5.2-6.7 14-9.3 19.5-2.6 5.5-7.3 15.4-10.5 22-13.2 27.8-22.1 50.3-23.9 60.7-.3 1.8.3.8 1.3-2.2 6.5-19.8 22.8-41 46.1-59.7 5.8-4.7 25.6-18.5 44-30.7 30.1-20 44-30.2 58.1-42.5 5.2-4.6 8.2-5.4 12.6-3.6 6.6 2.8 8.1 15.2 3.3 27.7-6.2 16.6-29.3 41.1-50.5 53.8-5.4 3.2-12.5 8.9-12.5 10.1 0 3.2 14.3 4.1 25.2 1.5 15-3.5 27.2-10.8 41.6-25 27.2-26.6 30.7-46.1 16.1-89.9-9.2-27.4-24.9-57.6-41.8-80.1-22.8-30.3-46.5-49.5-72.9-59-8.6-3-8.6-3-10.2-1.1z"/><path d="M366.4 207c.1 7.3.3 8.5 1.8 8.4.9-.1 1.9.4 2.2 1.1.3 1-.2 1.1-2.3.5-2.4-.7-2.7-.5-2.7 1.6 0 2.7.6 3 2.4 1.2.9-.9 1.5-.9 2.5.1s.8 1.2-.7.9c-1-.1-2.1.3-2.3 1-.3.7-.1 1.2.4 1.1 1.9-.3 3.4.2 2.9 1-.4.5 0 1.2.6 1.4 1 .4 1 .6 0 .6-.7.1-1.5-.6-1.8-1.4-.5-1.2-.9-1.3-2-.4-.8.7-1.7.9-2.1.5-.3-.3-.1-.6.6-.6s.9-.5.6-1c-1-1.6-2.3-1.1-2 .7.1 1-.2 2.6-.7 3.5-1.1 2.2-.2 2.3 1.8.3 1.8-1.7 3.4-2 3.4-.4 0 .5-.4.8-.9.4-.5-.3-1.6.4-2.4 1.5-.7 1.1-1.7 1.7-2 1.3-.4-.3-1 .8-1.3 2.5-.8 4-.7 4.7.8 4.7 1.7 0 2 1.9.5 3.9-1.1 1.5-1.6 1.6-2.2.6-.5-.8-.4-1.1.2-.7.6.4 1.4 0 1.7-.9.8-2.1.8-2.1-1-2.1-.8 0-2.4 1.8-3.5 4-1.3 2.5-1.6 3.7-.7 3.2.7-.3.4.1-.6.9-1.1.9-1.6 1.6-1 1.6.5 0 .5.3-.1.8-1.7 1.2-4.5 6.9-3.7 7.6.4.4.2.6-.4.4-.7-.2-2.9 1.9-5 4.7-2.1 2.7-4.6 5.6-5.7 6.4-1 .7-1.6 1.9-1.3 2.7.3.7 0 1.6-.6 2-.7.4-.8.3-.4-.4s.3-1.2-.3-1.2c-1.1 0-2.6 2-2.6 3.5 0 .5-.7 1-1.5 1-2 0-8 4.6-7.4 5.7.3.4 1 .5 1.6.2.7-.4.8-.2.4.5-.6.9-1.1.9-2.1.1s-2.3-.4-5.1 1.6c-2.2 1.4-3.8 3-3.6 3.6.1.5-.2.7-.8.3-.5-.3-3.6.8-6.7 2.5-3.2 1.8-6 3.3-6.3 3.4-.3 0-.4.4-.3.7.1.3-.8.5-2 .5-1.2-.1-2.1.4-2 1 .1.6-1 1.1-2.5 1.1s-4 .6-5.7 1.3c-1.6.7-3.7 1.4-4.6 1.6-.9.2-2.9.9-4.5 1.5-3.5 1.5-4 1.6-6 1.8-1.1.1-1.4.7-1 1.7.5 1.3.4 1.4-.7.6-1-.9-3.8-.5-11.3 1.3-5.4 1.4-10.9 2.5-12.1 2.5-1.3 0-2.3.4-2.3.9 0 .6-1 .8-2.2.6-1.2-.3-2.7.3-3.5 1.3-.8.9-1.2 1.1-.8.4.7-1.3-1.5-1.6-5.2-.6-1.4.4-2 1.1-1.6 1.8.4.6-.2.4-1.2-.4-1.7-1.4-1.8-1.3-1.2.3.4 1.1.3 1.6-.3 1.2-1.4-.9-1.2.8.3 2.5 1 1.2.9 1.2-.4.2-.9-.6-1.9-.9-2.2-.5-.4.3-.7.1-.7-.5s.5-1.4 1-1.7c.6-.3 1-1.1 1-1.6 0-.6-.6-.7-1.2-.2-.7.4-2.1.8-3 .9-3.1.3-3.3.4-1.8 1.4.9.6 1 1 .3 1-.6 0-1.5-.4-1.8-1-.7-1.2-5.5-.9-5.5.3 0 .5.7.6 1.6.3.8-.3 1.3-.2 1 .3-.3.5-1.7.8-3.2.8-1.8.1-2.2-.2-1.3-.8 1-.6.8-.9-.9-.9-1.3 0-2 .4-1.7 1 .3.5.1 1-.4 1-.6 0-1.1-.5-1.1-1.1 0-.5-.4-.8-1-.4-.5.3-.7 1.3-.4 2.3.5 1.5.4 1.4-.6-.1s-1.9-1.7-5.3-1.2c-2.3.4-4.8 1.2-5.6 1.9-1.1.8-1.3.8-.7-.2.4-.7.1-1.2-.9-1.2-1.2 0-1.4.4-.6 1.9 1.1 2 .3 3.2-3.1 4.4-2 .7-2.5 2.8-.6 2.5.7-.2 1.3.6 1.4 1.7.1 1.5 0 1.6-.3.2-.3-.9-.8-1.5-1.3-1.2-1.3.8-2.3-1.4-1.3-2.8 1.5-1.9 1.3-5.4-.3-5.4-.8 0-1.4.3-1.4.7 0 .3-.8.6-1.7.6-3 .1-4.7.8-6 2.4-.8.9-1.2 1-1.3.3 0-.8-.6-.8-2.4 0-1.3.7-2.2 1.6-1.9 2.1.4.5-.1.7-1.1.3-1.1-.5-1.5-.3-1 .5.5.7.2.9-.8.6-.9-.4-2.9.9-5.3 3.5-2.1 2.2-3.3 3.7-2.7 3.3.7-.4 1.2-.2 1.2.3 0 .6-.8 1.1-1.7 1.1-1.5.1-1.4.4.6 2.1 4.1 3.4 3.7 8.3-.4 5.3-1-.8-1.4-1.4-.9-1.4.6 0 1.6.6 2.3 1.2 1 1.1 1.2.9.9-.7-.4-2.7-3-4.7-4-3.2-1.6 2.6-.7 9.5 1.8 14.3 2.8 5.2 4.2 6.6 5.8 5.7.5-.3.6-.2.3.4-.7 1.2 2.3 4.2 7.3 7.2 3.9 2.3 5.5 2.7 4.4.9-.4-.7-.3-.8.5-.4.6.4.9 1.1.6 1.6-.3.5 2.3 1.8 5.7 2.9 34.5 11.3 85-2.3 122.3-32.9 6.4-5.3 19-17.9 24.1-24.1 8.7-10.6 17.8-25.4 16.8-27-.4-.7-.3-.9.3-.6 1.3.8 3.7-3.8 2.8-5.4-.5-.8-.4-1 .3-.5 2.1 1.2 11-22.5 11.5-30.4.1-2.2.5-4 1-4 1.3 0 .8-4-.5-4-1 0-1-.2 0-.9.8-.4 1.3-1.1 1.3-1.5-.1-.3-.1-.7 0-.9.6-2 .5-3.7-.2-3.7-.5 0-.9-.8-.9-1.8 0-1.4.2-1.4.9-.3.6.9.8-.5.6-4-.1-3-.4-5.4-.5-5.4-.1 0-.4-1.6-.6-3.5-.8-6.9-1.1-8.5-2.1-11-.6-1.4-.8-2.9-.5-3.4.3-.5-.1-.6-.8-.1-.9.6-1.2.4-.8-.6.3-.8.2-2.3-.2-3.4-.4-1-.6 1.9-.6 6.5zm3.2 4.4c.1.9-.3 2-1 2.5-.9.8-1.3.6-1.3-.7 0-.9.5-2 1.1-2.4.8-.5.7-.8-.1-.8-.7 0-1.3-.5-1.3-1.2 0-1.7 2.3.7 2.6 2.6zm.8 18.6c-.5.5-1.6.5-2.4-.1-1.3-.9-1.2-1 .3-.5 1.1.4 1.7 0 1.8-1.2 0-1.2.2-1.3.6-.4.3.8.1 1.8-.3 2.2zm-1.8 2.8c.1.7 0 .8-.3.2-.7-1.4-2.4-1.3-2 .2.1.6-.7 1.3-1.8 1.5l-2 .3 2-.9c1.1-.5 1.6-1 1.2-1-.5-.1-.5-.6-.2-1.2.8-1.3 2.8-.7 3.1.9zm2.4 3c0 .4-1.4.8-3.1.8-1.7.1-2.7-.1-2.1-.5 1.5-.9 5.2-1.1 5.2-.3zm-2.6 5.6c.3 1.6.2 2.5-.1 2.2-.4-.4-.9-1.9-1.1-3.4-.2-1.5-.1-2.4.2-2.2.3.3.7 1.8 1 3.4zM366 244c0 .5-.2 1-.4 1-.3 0-.8-.5-1.1-1-.3-.6-.1-1 .4-1 .6 0 1.1.4 1.1 1zm-5 3.4c0 .2-.7.7-1.6 1-.8.3-1.2.2-.9-.4.6-1 2.5-1.4 2.5-.6zm7.7 1.1c0 .8-.4 1.2-.9.9-.4-.3-.8-.9-.8-1.5 0-.5.4-.9.8-.9.5 0 .9.7.9 1.5zm-2 2.8c0 .7-.9 1.4-1.9 1.4-1 .1-1.8-.3-1.8-.8 0-.6.4-.8.9-.4.5.3 1.2.1 1.6-.5.8-1.3 1.2-1.3 1.2.3zm-5.7 3.2c-1 1.2-1 1.8.1 3.2 1.2 1.7 1.2 1.7-.6.1-1.5-1.4-1.6-2-.5-3.2.7-.9 1.5-1.6 1.7-1.6.3 0 0 .7-.7 1.5zm-6 3.9c0 .2-.8 1-1.7 1.7-1.6 1.3-1.7 1.2-.4-.4 1.3-1.6 2.1-2.1 2.1-1.3zm4 1.7c0 .5-.4.9-.8.9-.5 0-.9-.7-.9-1.5s.4-1.2.9-.9c.4.3.8.9.8 1.5zm-6.5 2.7c-.3.3-1.1 0-1.8-.7-.9-1-.8-1.1.6-.5 1 .3 1.5.9 1.2 1.2zm8.2.5c0 .8-.6 1.4-1.4 1.4-.9 0-1-.4-.2-1.4.6-.7 1.2-1.3 1.4-1.3.1 0 .2.6.2 1.3zm-11.3.5c.3.5-.1.9-.9.9s-1.2-.4-.9-.9c.3-.4.7-.8.9-.8.2 0 .6.4.9.8zm6.7 1.5c-1 .9-1.1.8-.5-.6.3-1 .9-1.5 1.2-1.2.3.3 0 1.1-.7 1.8zm2.5 8.9c.3.4-.1.5-1 .4-.8-.1-1.8-.5-2.2-.8-.3-.4.1-.5 1-.4.8.1 1.8.5 2.2.8zm-4.1 3.7c.3.5.2 1.2-.3 1.5-.5.3-.9-.1-.9-.9 0-1.7.3-1.9 1.2-.6zm-12 4c-.9.8-3.6 1-3 .2.2-.4 1.1-.8 2-.8.8 0 1.3.3 1 .6zm-18 4.9c-.3.3-1.1 0-1.8-.7-.9-1-.8-1.1.6-.5 1 .3 1.5.9 1.2 1.2zm6.5-1.4c0 .3-.4.8-1 1.1-.5.3-1 .1-1-.4 0-.6.5-1.1 1-1.1.6 0 1 .2 1 .4zm5.6.8c.3.4-.1.5-1 .4-.8-.1-1.8-.5-2.2-.8-.3-.4.1-.5 1-.4.8.1 1.8.5 2.2.8zm-21.9 11.3c0 .8-.4 1.2-.9.9-.5-.3-.6-1-.3-1.5.9-1.3 1.2-1.1 1.2.6zm-20.7 1.9c0 .2-.8 1-1.7 1.7-1.6 1.3-1.7 1.2-.4-.4 1.3-1.6 2.1-2.1 2.1-1.3zm7 0c0 .3-.4.8-1 1.1-.5.3-1 .1-1-.4 0-.6.5-1.1 1-1.1.6 0 1 .2 1 .4zm5.4 2.4c.2.4-.5.9-1.7.9-1.7.2-1.9 0-.7-.7 1.8-1.2 1.8-1.2 2.4-.2zm-5.4 1.6c0 .3-.4.8-1 1.1-.5.3-1 .1-1-.4 0-.6.5-1.1 1-1.1.6 0 1 .2 1 .4zm-16 4.2c0 .8-1.9 1.3-2.4.6-.3-.5.1-.9.9-.9s1.5.2 1.5.3zm6 2c0 .8-1.9 1.3-2.4.6-.3-.5.1-.9.9-.9s1.5.2 1.5.3zm-34.7 1.8c.3-.3.4.1.3 1-.1.8-.5 1.8-.9 2.1-.4.3-.5.2-.2-.2.3-.3-.3-1.6-1.2-2.7-1.4-1.5-1.4-1.8-.2-.8.9.6 1.8.9 2.2.6zm-3.3 2.1c1.4 1.9 1.4 1.9-.2.6-1-.7-1.8-1.8-1.8-2.4 0-.6.1-.8.3-.6.1.2.9 1.3 1.7 2.4zm32.4-1.7c.3.5-.1.9-.9.9s-1.5-.4-1.5-.9c0-.4.4-.8.9-.8.6 0 1.2.4 1.5.8zm-44.9 1.2c-.3.5 0 1 .7 1.1 1 0 1 .2 0 .6-.6.2-.9 1-.6 1.5.4.7.2.8-.5.4-.6-.4-.9-1.2-.6-1.7.4-.5 0-.9-.7-.9-.9 0-.9-.3.2-1 1.9-1.2 2.3-1.2 1.5 0zm5 1c-.3.5-1.2 1-1.8 1-.7 0-.6-.4.3-1 1.9-1.2 2.3-1.2 1.5 0zm14.6.7c1.3 1.6 1.2 1.7-.3.4-1-.7-1.8-1.5-1.8-1.7 0-.8.8-.3 2.1 1.3zm-7.2 2c.2.1-.5.1-1.6 0-1.1 0-2-.7-2-1.4 0-1 .4-1 1.6-.1.9.7 1.8 1.3 2 1.5zm-28.2.8c0 .8-.4 1.5-.9 1.5-1 0-1.1-1.4-.1-2.3.9-1 1-.9 1 .8zm56 0c0 .8-.4 1.2-.9.9-.5-.3-.6-1-.3-1.5.9-1.3 1.2-1.1 1.2.6zm-70.1 1.4c.1.6 0 .7-.3.1-.2-.5-.9-.8-1.3-.5-.5.3-1.1.1-1.4-.4-.4-.5.2-.8 1.1-.7.9.2 1.8.8 1.9 1.5zm5.9 1.2c-.3 1.2-.7 2.4-1.1 2.8-.4.3-.4-.2-.1-1.2.6-1.5.3-1.7-1.6-1.2-2 .5-2 .5.3-.9 1.4-.9 2.6-1.5 2.7-1.6.1 0 0 1-.2 2.1zm26.5-1.7c0 .2-.8 1-1.7 1.7-1.6 1.3-1.7 1.2-.4-.4 1.3-1.6 2.1-2.1 2.1-1.3zm-38.5 1.6c.3.5.2 1-.4 1-.5 0-1.3-.5-1.6-1-.3-.6-.2-1 .4-1 .5 0 1.3.4 1.6 1zm33.6.7c1.2 1.6 1.2 1.7-.2.6-.9-.7-1.9-1-2.2-.6-.4.3-.7.1-.7-.5 0-1.7 1.6-1.5 3.1.5zm10.5.9c.1.9 0 1.3-.4 1-.3-.4-.7-1.4-.8-2.2-.1-.9 0-1.3.4-1 .3.4.7 1.4.8 2.2zm6.4-1.6c0 .5-.2 1-.4 1-.3 0-.8-.5-1.1-1-.3-.6-.1-1 .4-1 .6 0 1.1.4 1.1 1zm21.5-.1c.3.5.2 1.2-.3 1.5-.5.3-.9-.1-.9-.9 0-1.7.3-1.9 1.2-.6zm-87.1 1.6c-.4.8-1.1 1.5-1.6 1.5-.6 0-.5.8.3 1.7 1.1 1.5 1.1 1.6-.1.5-2-1.7-3.5-1.5-2 .3.8.9.8 1.5.2 1.5-2.2 0-1.8-2.6.7-4.7 3.1-2.7 3.2-2.7 2.5-.8zm19.1.4c-.3.6-1.1.8-1.7.5-.7-.5-.9-.1-.5.9.3 1 .2 1.7-.4 1.7-.6 0-.9-.8-.7-1.8.2-.9 1-1.6 1.6-1.5.7.2 1.2-.2 1.2-.9 0-.6.3-.9.6-.5.3.3.3 1.1-.1 1.6zm24.4-.6c.8 1 .7 1.4-.4 1.4-.8 0-1.1-.5-.8-1 .4-.6-.1-.8-1.1-.4s-1.5.3-1.1-.3c.8-1.4 2-1.2 3.4.3zm12.2.4c1.3 1.6 1.2 1.7-.3.4-1-.7-1.8-1.5-1.8-1.7 0-.8.8-.3 2.1 1.3zm-52.1.2c0 .5-.6 1.1-1.2 1.4-1 .3-1 .9 0 2.6 1.7 3 1.5 4-.4 1.3-.9-1.3-1.3-3.1-.9-4.2.6-2 2.5-2.8 2.5-1.1zm10 1.7c0 .8-.4 1.4-1 1.4-.5 0-.7-.8-.3-1.8.6-1.6.5-1.6-1.4 0-1.1 1-2.3 1.8-2.7 1.8-.5 0 .2-.9 1.5-1.9 2.5-2 3.9-1.9 3.9.5zm17.5-1.7c.3.5.2 1.2-.3 1.5-.5.3-.9-.1-.9-.9 0-1.7.3-1.9 1.2-.6zm42 .1c.3.5.1 1-.4 1-.6 0-1.1-.5-1.1-1 0-.6.2-1 .4-1 .3 0 .8.4 1.1 1zm4.5 0c0 .5-.2 1-.4 1-.3 0-.8-.5-1.1-1-.3-.6-.1-1 .4-1 .6 0 1.1.4 1.1 1zm-30.5.9c.3.5.2 1.2-.3 1.5-.5.3-.9-.1-.9-.9 0-1.7.3-1.9 1.2-.6zm-55.6 3c-2.6 2.2-1.9 2.7 1.3 1 1.5-.8 1.9-.8 1.4 0-.4.6-.2 1.1.3 1.1.6 0 1.1.5 1.1 1.1 0 .5-.4.7-1 .4-.5-.3-1-.1-1 .4 0 .6-.5 1.1-1.1 1.1-.8 0-.7-.6.2-1.7 1.2-1.5 1.2-1.6-.3-1-1 .3-2.5.4-3.3.1-1.1-.4-.8-1.1 1.3-2.9 1.5-1.3 2.9-2.2 3.1-1.9.2.2-.7 1.2-2 2.3zm33.6-.8c.5.5-.5.4-2.3-.2-1.7-.6-3.2-1.3-3.2-1.6 0-.7 4.3.8 5.5 1.8zm15.9-.5c.3.8.2 1.2-.4.9-.6-.3-1-1-1-1.6 0-1.4.7-1.1 1.4.7zm-21.2 1.1c-.6.2-.9 1-.6 1.5.4.7.2.8-.5.4-1.3-.9-.5-2.6 1.2-2.5.9 0 .8.2-.1.6zm6.9 1.6c-1 .9-1.1.8-.5-.6.3-1 .9-1.5 1.2-1.2.3.3 0 1.1-.7 1.8zm8.9 1c0 .6-.3.7-.7.4-.3-.4-1.1-.2-1.8.3-.8.7-1.2.5-1.2-.5 0-.8.5-1.1 1-.8.7.4.8-.1.3-1.2-.5-1.5-.4-1.6.9-.5.8.7 1.5 1.7 1.5 2.3zm-50.4-1.6c-.3.4.4 1.3 1.6 2.1 1.8 1 1.9 1.2.3.6-1.1-.3-2.6-.7-3.2-.7-.9 0-1-.4-.2-1.4.6-.7 1.4-1.3 1.7-1.3.3 0 .2.3-.2.7zm26.6 0c-.6.2-.9 1-.6 1.5.4.7.2.8-.4.4-1.8-1.1-1.4-2.6.6-2.5 1 0 1.2.3.4.6zm4.5-.1c-.3.3-1.2.4-1.9.1-.8-.3-.5-.6.6-.6 1.1-.1 1.7.2 1.3.5zm33 .7c0 .8-.6 1.4-1.4 1.4-.9 0-1-.4-.2-1.4.6-.7 1.2-1.3 1.4-1.3.1 0 .2.6.2 1.3zm-48.1.8c1.2 2-1.1 3-3.2 1.3-1.8-1.5-1.8-1.5.4-.4 1.3.6 2.2.7 2.2.1 0-.5-.6-1.2-1.2-1.4-1-.4-1-.6-.1-.6.6-.1 1.5.4 1.9 1zm53.4-.7c0 .2-.8 1-1.7 1.7-1.6 1.3-1.7 1.2-.4-.4 1.3-1.6 2.1-2.1 2.1-1.3zm-50 3.6c-.6 1.1-1.5 1.8-1.9 1.5-.5-.3-1.1.1-1.4.9-.4.9-1.4 1.2-2.8.9-1.7-.5-2-.3-1.4.7.5.9.4 1.1-.4.6-1.7-1.1-.2-2.9 1.9-2.3 1.1.3 2.1-.2 2.4-1 .3-.8 1-1.2 1.5-.9.5.3 1.1-.1 1.5-.9.3-.8.8-1.5 1.1-1.5.3 0 .1.9-.5 2zm9.1 1.2c-1 1.1-1.1.9-.5-.6.6-1.5.4-1.7-.6-1.1-.9.6-1.1.4-.5-.4.5-.9 1-1 1.8-.2s.7 1.4-.2 2.3zm14.9-2.7c0 .2-.6.8-1.3 1.4-1 .8-1.4.7-1.4-.2 0-.8.6-1.4 1.4-1.4.7 0 1.3.1 1.3.2zm36.7 1c0 .8-.4 1.2-.9.9-.5-.3-.6-1-.3-1.5.9-1.3 1.2-1.1 1.2.6zm-80.3 1c-.4.8-.8 1.5-1 1.5-.2 0-.4-.7-.4-1.5s.4-1.5 1-1.5c.5 0 .7.7.4 1.5zm38.8.8c-.7.8-1 1.6-.7 1.9.3.2-.1.5-.9.5-1.2 0-1.1-.5.2-2.3.9-1.2 1.9-2 2.1-1.8.2.2-.1 1-.7 1.7zm-36.2.7c-.8.5-1.7.7-1.9.4-.3-.3.1-.9.9-1.4.8-.5 1.7-.7 1.9-.4.3.3-.1.9-.9 1.4zm9-1c-.8.5-2.2.9-3 .9-1 0-.8-.3.5-.9 2.7-1.2 4.3-1.2 2.5 0zm13.4.2c-.3.4-.9.8-1.5.8-.5 0-.9-.4-.9-.8 0-.5.7-.9 1.5-.9s1.2.4.9.9zm20.6-.8c0 .2-.8 1-1.7 1.7-1.6 1.3-1.7 1.2-.4-.4 1.3-1.6 2.1-2.1 2.1-1.3zm-39 2.6c0 .5-.4 1-1 1-.5 0-1-.5-1-1 0-.6.5-1 1-1 .6 0 1 .4 1 1zm13.5 0c-.3.5-.1 1 .6 1s1 .3.6.6c-.9.9-2.8-.6-2.2-1.7.4-.5.8-.9 1.1-.9.3 0 .2.4-.1 1zm48.5 0c0 .5-.2 1-.4 1-.3 0-.8-.5-1.1-1-.3-.6-.1-1 .4-1 .6 0 1.1.4 1.1 1zm-68.3 1.9c.9 1.1 2 1.8 2.4 1.5 1.3-.8 3.2 3.7 2.1 4.8-.6.6-1.2.5-1.7-.3-.6-.8-.4-1 .5-.4 1 .6 1.2.4.7-.9-.4-1-.7-2-.7-2.3 0-.3-.8.1-1.7.8-.9.8-1.4.9-1 .3.3-.6-.3-1.8-1.4-2.7-2.1-1.9-3.3-2.2-2.4-.7.3.6-.1.7-1 .3-1.3-.5-1.4-.7-.3-1.4 1.9-1.3 2.6-1.1 4.5 1zm28 0c0 1.1-.5 1.7-1 1.4-.4-.2-1.5.1-2.4.9-1.5 1.2-1.5 1.1-.3-.9.8-1.2 1.8-1.9 2.2-1.7.4.3.8 0 .8-.5 0-.6.2-1.1.4-1.1.3 0 .4.9.3 1.9zm6.3-1.5c0 .2-.6.9-1.4 1.5-1.1.9-1.6.9-2.2 0-.4-.7-.3-.9.4-.5.6.3 1.3.2 1.7-.4.6-1 1.5-1.4 1.5-.6zm-24.4 2.4c.1.7 0 .8-.3.2-.2-.5-.9-.8-1.4-.4-.5.3-.9 0-.9-.6 0-1.5 2.3-.7 2.6.8zm35.9-.9c.3.5.2 1.2-.3 1.5-.5.3-.9-.1-.9-.9 0-1.7.3-1.9 1.2-.6zm-39.7 2.6c-.3.3-.9-.2-1.2-1.2-.6-1.4-.5-1.5.5-.6.7.7 1 1.5.7 1.8zm9.7-1.5c.3.6-.1.7-.9.4-1.8-.7-2.1-1.4-.7-1.4.6 0 1.3.4 1.6 1zm19 1c-.3.5-1.2 1-1.8 1-.7 0-.6-.4.3-1 1.9-1.2 2.3-1.2 1.5 0zm7.5.4c-.7.7-1.3.7-2 0-.6-.6-.3-1 1-1s1.6.4 1 1zm-44.3 1.8c-.3.8-.6.5-.6-.6-.1-1.1.2-1.7.5-1.3.3.3.4 1.2.1 1.9zm23.5-.7c.3 0 .8.2 1 .5.2.3.1.4-.1.3-.2-.1-1.1.2-2 .7-1.3.6-1.7.4-1.7-1 0-1 .5-1.6 1.1-1.2.5.4 1.3.7 1.7.7zm-9.4-.1c-.2.1-1.2.8-2.2 1.6-1.1.8-1.7 1-1.3.3.4-.6.1-1.3-.5-1.6-.7-.2 0-.4 1.5-.4s2.7 0 2.5.1zm13.9.3c-.4.3-.1 1.3.6 2.2 1.1 1.4 1 1.4-.5.2-1.6-1.2-1.6-3.1-.1-3.1.4 0 .3.3 0 .7zm4.3-.1c0 .8-1.9 1.3-2.4.6-.3-.5.1-.9.9-.9s1.5.2 1.5.3zm24-.2c0 .2-.7.7-1.6 1-.8.3-1.2.2-.9-.4.6-1 2.5-1.4 2.5-.6zm-20 1c0 .2-.8 1-1.7 1.7-1.6 1.3-1.7 1.2-.4-.4 1.3-1.6 2.1-2.1 2.1-1.3zm-32 4c0 .6-.5.3-1.1-.8-.9-1.5-1.3-1.6-2-.5-1.2 1.9-1.1 3.2.1 2.4.6-.3 1-.4 1-.1 0 1.6-2.1 1.3-3-.5-.7-1.2-.8-1.9-.2-1.5.5.3 1.3-.1 1.6-1 .5-1.3.9-1.4 2.1-.4.8.7 1.5 1.8 1.5 2.4zm11.3-1.7c-.3.7-.6 1.3-.8 1.3-.2 0-.5-.6-.8-1.3-.3-.8.1-1.4.8-1.4.7 0 1.1.6.8 1.4zm24.4-.2c0 .8-.4 1.2-.9.9-.5-.3-.6-1-.3-1.5.9-1.3 1.2-1.1 1.2.6zm24.3-1.1c0 .3-.4.8-1 1.1-.5.3-1 .1-1-.4 0-.6.5-1.1 1-1.1.6 0 1 .2 1 .4zm-46.3 2.1c0 .8-.4 1.2-.9.9-.5-.3-.6-1-.3-1.5.9-1.3 1.2-1.1 1.2.6zm6 0c0 .8-.3 1.3-.5 1-.3-.3-1 0-1.7.5-.8.7-1.2.5-1.2-.5 0-.8.4-1.2.8-.9.4.2 1 0 1.4-.6.9-1.4 1.2-1.3 1.2.5zm-29.3 1c-.4.8-.8 1.5-1 1.5-.2 0-.4-.7-.4-1.5s.4-1.5 1-1.5c.5 0 .7.7.4 1.5zm19 .1c.3.8.2 1.2-.4.9-.6-.3-1-1-1-1.6 0-1.4.7-1.1 1.4.7zm-18.3 2.7c-1 .9-1.1.8-.5-.6.3-1 .9-1.5 1.2-1.2.3.3 0 1.1-.7 1.8zm13-.4c-.6 1-.8 2.1-.6 2.5.3.3.2.3-.2 0-1.1-.8-1-2.8.2-3.6 1.5-1.2 1.7-1 .6 1.1zm45.3-.7c-.3.4-1.1.5-1.9.1-2.1-.7-1.9-1.2.4-1 1.1 0 1.8.5 1.5.9zm-36.4 1.3c-1.2 1.4-4.3 1.6-5.6.2-.4-.3.5-.4 1.9-.1 1.4.2 2.9 0 3.2-.6.3-.5.9-1 1.2-1 .3 0 0 .7-.7 1.5zm-18-.1c0 .3-.4.8-1 1.1-.5.3-1 .1-1-.4 0-.6.5-1.1 1-1.1.6 0 1 .2 1 .4zm44.1 1.9c-1 .9-1.1.8-.5-.6.3-1 .9-1.5 1.2-1.2.3.3 0 1.1-.7 1.8zm-39.4.3c-.3.3-1.2.4-1.9.1-.8-.3-.5-.6.6-.6 1.1-.1 1.7.2 1.3.5zm34.3.4c0 .5-.5 1-1.1 1-.5 0-.7-.5-.4-1 .3-.6.8-1 1.1-1 .2 0 .4.4.4 1zm11.7.5c0 .8-.4 1.2-.9.9-.5-.3-.6-1-.3-1.5.9-1.3 1.2-1.1 1.2.6zm-44 .9c0 1.5-2.1 1.6-3.4.1-.4-.4-.3-.5.4-.1.6.3 1.4.2 1.8-.4.8-1.4 1.2-1.3 1.2.4zm8.3.7c0 .5-.4.9-.8.9-.5 0-.9-.7-.9-1.5s.4-1.2.9-.9c.4.3.8.9.8 1.5zm46-1.7c0 .2-.8 1-1.7 1.7-1.6 1.3-1.7 1.2-.4-.4 1.3-1.6 2.1-2.1 2.1-1.3zm-58.6 2.2c.3.8.2 1.2-.4.9-.6-.3-1-1-1-1.6 0-1.4.7-1.1 1.4.7zm10.6 3.3c0 .6-.4 1.2-.8 1.5-.5.3-.9-.1-.9-.9s.4-1.5.9-1.5c.4 0 .8.4.8.9zm3.4.7c.3.8.2 1.2-.4.9-.6-.3-1-1-1-1.6 0-1.4.7-1.1 1.4.7zm12.6-1.2c0 .2-.7.7-1.6 1-.8.3-1.2.2-.9-.4.6-1 2.5-1.4 2.5-.6zm5.5.6c.3.5.1 1-.4 1-.6 0-1.1-.5-1.1-1 0-.6.2-1 .4-1 .3 0 .8.4 1.1 1zm-9.9 6.2c.3.4-.1.5-1 .4-.8-.1-1.8-.5-2.2-.8-.3-.4.1-.5 1-.4.8.1 1.8.5 2.2.8z"/><path d="M195.7 319.4c-.7 1.9 1.1 3.2 2.4 1.9.6-.6.5-1.4-.4-2.2-1.2-.9-1.6-.8-2 .3zM40 426.4c-6.9 1.9-11.1 4.2-15.8 8.8-15.4 14.9-15.1 42.8.7 57.1 7.7 6.9 18.2 10.3 28.9 9.3 9.6-.9 16.2-3.8 24.1-10.6l3.4-2.9-3.1-3.9c-5.4-6.8-5.7-6.8-9.9-3.2-13.4 11.8-32.7 8.5-39.5-6.8-4.4-9.9-2.6-21.5 4.7-28.7 10-10.1 28.6-9.3 37.9 1.6l3.3 4 1.8-2.7c4.3-6.6 2.4-14.7-4.4-18.7-7.7-4.5-22.2-6-32.1-3.3zM168.5 427.4c-4.6 2-5.8 4.1-6.4 11.4-.4 4.9-1 6.7-2.1 6.8-.8.1-2.3.2-3.2.3-1.3.1-1.7 1.2-1.7 5.6v5.5h6.9v17.1c0 19.2.9 22.8 6.2 25 6.6 2.7 15 .1 17.3-5.4 1.6-4 1-6-1.5-4.7-2.9 1.6-6.8 1.2-7.8-.8-.6-1.3-.9-23.8-.3-30 0-.6 1.2-1.2 2.6-1.2 4.2 0 7.4-2.1 8.6-5.7 1.7-5.2.8-6.1-5-5.7-3.1.2-5.3-.2-5.8-.9-.4-.7-.8-5-.8-9.7 0-7.8-.2-8.5-2-8.7-1.1-.2-3.4.3-5 1.1zM208 427.8c-4.5 2.2-6 5.3-6 12.4 0 5.4-.1 5.6-2.4 5.2-3.2-.5-4.3 1.2-4.4 6.8l-.1 4.8h6.9v17c0 20.1-.2 17.9 1.8 21.2 4.3 7.4 18.4 6.4 21.7-1.5 1.6-4 1-6-1.5-4.7-2.5 1.4-6.7 1.3-7.6-.2-.7-1.2-1.3-28.4-.6-30.6.2-.6 1.7-1.2 3.3-1.2 3.7 0 7.7-3.7 8.5-7.8.7-3.5 1-3.3-6.5-3.6-2.2 0-4.3-.4-4.7-.9-.4-.4-.7-4.8-.7-9.7.1-8.6 0-9-2-9-1.2 0-3.8.8-5.7 1.8zM366.5 427.4c-5.7 2.5-5.9 3.7-6 38.4-.1 17.4.2 32.4.6 33.2.5 1.1 2.3 1.5 6.6 1.5h5.8l.3-37.3.2-37.2h-2.2c-1.3.1-3.6.7-5.3 1.4zM450.3 427.5c-6.7 2.9-6.7 3.2-6.8 39.2 0 20.6.4 32.7 1 33.1.6.4 3.6.7 6.8.8 5.6.1 5.7 0 5.7-2.7v-2.8l5.1 3.1c4.4 2.8 6 3.2 11.7 3.2 14.9-.1 25.3-11.7 25.3-28.3 0-12.7-8.6-24.3-20-27.1-11-2.6-20.1 2.7-20.1 11.9 0 1.6.5 3.3 1 3.6.6.3 1 .2 1-.3 0-1.5 5.7-3.2 10.4-3.2 8.3 0 14 6.3 14 15.5 0 9.1-5.5 15.5-13.6 15.7-5.7.1-9.7-2.5-12.4-7.9-1.7-3.4-1.9-6.8-2.2-29.6-.4-28.5 0-27.2-6.9-24.2zM106.6 445.5c-5.7 2-10.7 6.5-14.1 12.6-2.7 4.9-3 6.2-3 14.9 0 8.1.4 10.2 2.5 14.3 7.2 14.2 24.4 18.7 37.1 9.7l2.9-2.1v2.8c0 2.8 0 2.8 6.3 2.7 3.4-.1 6.5-.2 7-.3.4 0 .7-12.5.7-27.6V445h-14v9.7c-.1 16.6-.7 22-2.9 26.7-6.8 13.9-26.6 7.4-26.2-8.5.1-6.5 3.3-12.3 7.9-14.5 4.3-2 13.3-1.5 16 .9 2.2 2 3.2 1.3 3.2-2.2 0-4-3.3-9.2-7.1-11.3-4-2.1-10.8-2.3-16.3-.3zM252.2 445.2c-5.2 1.7-12.6 9.1-15.1 14.8-4.3 10.1-3 23.5 3.2 31.6 8 10.6 23.5 13.1 33.9 5.4 2.8-2.1 2.9-2 3.2 2 .1 1.1 1.6 1.5 6.1 1.5 3.3.1 6.5-.2 7-.6.6-.5 1-10.8 1-27.6v-26.8l-7.1-.3-7-.3.1 12.8c.2 18.5-1.8 25.7-7.8 29.3-9.8 6-20.9-1.3-21.1-13.8-.1-6.6 2.8-12.3 7.4-14.7 4.1-2.1 11.8-1.9 15.7.5 2.9 1.7 3.2 1.8 3.5.2.7-3.3-1.1-8.6-4-11.5-2.5-2.5-3.8-3-9.3-3.3-3.5-.2-7.9.2-9.7.8zM320.1 445.1c-17.2 5.2-25.3 25.8-16.4 42.1 7.3 13.4 26.1 18.2 39.8 10.3 4-2.3 9.2-7.2 8.4-7.8-.2-.2-2.5-1.9-5.1-3.7-4.4-3-4.9-3.2-6.5-1.8-8.5 7.3-21.4 5.3-25.5-4-5.2-11.7 2.5-23.2 15.4-23.2 5 0 12.5 3.4 13.3 6.1.8 2.5 3.1 2.5 4.5 0 2.8-5.4-.6-12.9-7.5-16.5-4.6-2.3-15-3.1-20.4-1.5zM384.8 447.4c-1 5.8.1 33.8 1.6 38.8 2.9 10 10.5 15.2 22.3 15.2 13.1-.1 21.3-6.7 23.3-18.9.5-3.3 1-13.1 1-21.8 0-17.2.3-16.5-6.3-14.6-6.3 1.7-7.1 4.1-7.7 21.5-.5 14.3-.7 15.4-2.8 17.7-4.7 4.9-12.3 4.2-15.6-1.4-1.5-2.6-1.8-5.6-1.9-20.8l-.1-17.8h-6.7c-6.1-.1-6.7.1-7.1 2.1z"/></svg>